<?xml version="1.0" standalone="no"?><!DOCTYPE svg PUBLIC "-//W3C//DTD SVG 1.1//EN" "http://www.w3.org/Graphics/SVG/1.1/DTD/svg11.dtd"><svg t="1576032150831" class="icon" viewBox="0 0 1024 1024" version="1.1" xmlns="http://www.w3.org/2000/svg" p-id="1870" xmlns:xlink="http://www.w3.org/1999/xlink" width="200" height="200"><defs><style type="text/css"></style></defs><path d="M342 277.3h344.2c16.4 0 26.6-14.3 26.6-26.6v-82c0-16.4-12.3-26.6-26.6-26.6h-16.4c-16.4 0-26.6-14.3-26.6-26.6 0-28.7-22.5-51.2-51.2-51.2H440.3c-28.7 0-51.2 22.5-51.2 51.2 0 16.4-12.3 26.6-26.6 26.6h-18.4c-16.4 0-26.6 14.3-26.6 26.6v82c-2.2 16.3 10.1 26.6 24.5 26.6z m174.1-164c32.8 0 55.3 26.6 55.3 57.4 0 36.9-26.6 57.4-55.3 57.4s-55.3-26.6-55.3-57.4 26.6-57.4 55.3-57.4z" p-id="1871"></path><path d="M807.1 154.3h-16.4c-16.4 0-28.7 10.2-28.7 26.6v120.9c0 16.4-12.3 26.6-26.6 26.6l-442.6 4.1c-16.4 0-26.6-14.3-26.6-26.6V185.1c0-16.4-12.3-26.6-26.6-26.6h-16.5c-43-4.1-61.5 24.6-61.5 61.5v668c0 30.7 28.7 71.7 67.6 71.7h565.5c32.8 0 67.6-36.9 67.6-71.7V215.8c2.2-30.7-20.4-61.5-55.2-61.5zM417.6 739.1H313.3c-10.2 0-18.4-8.2-18.4-18.4s8.2-18.4 18.4-18.4h104.3c10.2 0 18.4 8.2 18.4 18.4s-8.2 18.4-18.4 18.4z m110.8-131H313.3c-10.2 0-18.4-8.2-18.4-18.4s8.2-18.4 18.4-18.4h215.1c10.1 0 18.4 8.2 18.4 18.4s-8.2 18.4-18.4 18.4z m200.7-145c0 9.9-8 17.9-17.9 17.9H312.8c-9.9 0-17.9-8-17.9-17.9v-0.9c0-9.9 8-17.9 17.9-17.9h398.4c9.9 0 17.9 8 17.9 17.9v0.9z" p-id="1872"></path></svg>